<svg xmlns="http://www.w3.org/2000/svg" viewBox="0 0 190 40" width="190" height="40" fill="none">
  <style>
    .wordmark { fill: #0A1116; }
    @media (prefers-color-scheme: dark) {
      .wordmark { fill: #F0F4F8; }
    }
  </style>
  <rect x="2" y="2" width="36" height="36" rx="6" fill="#1580D1"/>
  <g transform="translate(2.33, 3.75) scale(0.0942)" fill="#FFFFFF">
    <path d="M 220 131 L 224 137 L 176 294 L 165 294 L 143 246 L 92 297 L 64 268 L 111 221 L 65 198 L 63 191 Z" />
    <path d="M 127 71 L 174 116 L 164 125 L 118 81 Z" />
    <path d="M 196 48 L 210 48 L 210 114 L 196 114 Z" />
    <path d="M 273 82 L 284 91 L 239 135 L 230 124 Z" />
    <path d="M 250 152 L 312 152 L 312 166 L 250 166 Z" />
    <path d="M 242 181 L 288 226 L 279 236 L 232 191 Z" />
  </g>
  <text x="48" y="27" class="wordmark" font-family="'Onest', -apple-system, BlinkMacSystemFont, 'Segoe UI', Roboto, sans-serif" font-size="22" font-weight="700" letter-spacing="-0.03em">whysogood</text>
</svg>